<?xml version="1.0"?>
<svg xmlns="http://www.w3.org/2000/svg" fill="#fff" viewBox="0 0 64 64" width="512" height="512"><g id="Outline"><path d="M61.106,34.441A3.924,3.924,0,0,0,58.061,33a11.494,11.494,0,0,0-3.768.649A3.971,3.971,0,0,0,51.324,32.5a2.966,2.966,0,0,0,.176-1,2.959,2.959,0,0,0-3.83-2.869,6.935,6.935,0,0,0-6.629-5.875,1,1,0,1,0-.078,2A4.981,4.981,0,0,1,44.3,33.268a2.005,2.005,0,0,1-2.829,0l-4.243-4.243a2,2,0,0,1,0-2.829,4.317,4.317,0,0,1,.467-.381l.081-.06a.959.959,0,0,0,.16-1.37,1.044,1.044,0,0,0-1.438-.172,6.309,6.309,0,0,0-.684.569,3.948,3.948,0,0,0-.662,4.748l-1.2.931c.015-.153.041-.306.041-.461a5.011,5.011,0,0,0-5.126-5A4,4,0,0,0,21,26c0,.048.006.1.008.144A4,4,0,0,0,20,26h-.021a5.132,5.132,0,0,0-1.18-1.132,1,1,0,0,0-1.133,1.649,3.067,3.067,0,0,1,.936,1.025.991.991,0,0,0,1.045.495A2.178,2.178,0,0,1,20,28a2,2,0,0,1,2,2,1.975,1.975,0,0,1-.432,1.221,1,1,0,0,0-.051,1.157,2.967,2.967,0,0,1-.733,4.018.988.988,0,0,0-.371.6H19.2c-.057-.15-.122-.3-.182-.443l.971-5.379a1,1,0,1,0-1.968-.356l-.488,2.7A21.872,21.872,0,0,0,16.2,31.565l.749-2.249a1,1,0,0,0-1.9-.632l-.365,1.093A21.865,21.865,0,0,0,12,27.324V25a1,1,0,0,0-2,0v.977c-.506-.306-1.019-.6-1.553-.872a1,1,0,1,0-.894,1.79c.554.277,1.091.581,1.612.9l-.612.306a1,1,0,0,0,.894,1.79l1.575-.788A19.945,19.945,0,0,1,13.089,31H11a1,1,0,0,0,0,2h3.789a19.981,19.981,0,0,1,1.42,2.287l-2.076-.278a1,1,0,0,0-.266,1.982l.066.009H9.281A1.959,1.959,0,0,1,9,36a2.019,2.019,0,0,1,.15-.754,1,1,0,0,0-.231-1.094,2.885,2.885,0,0,1-.806-2.912,1,1,0,0,0-.186-.881.965.965,0,0,0-.82-.373c-.057,0-.113.008-.107.014a1.989,1.989,0,0,1-1.479-3.331,1,1,0,0,0,0-1.338A1.994,1.994,0,1,1,8.648,22.87a1,1,0,0,0,1.206.359,3,3,0,0,1,4.079,2.147,1,1,0,0,0,1.957-.414A5,5,0,0,0,9.8,21.146,4,4,0,0,0,3,24a3.947,3.947,0,0,0,.546,2A3.947,3.947,0,0,0,3,28a4.006,4.006,0,0,0,3,3.874c0,.042,0,.084,0,.126a4.942,4.942,0,0,0,1.1,3.121A3.68,3.68,0,0,0,7.146,37H7a1,1,0,0,0-1,1v2a16.813,16.813,0,0,0,1.634,7.27,1,1,0,0,0,1.806-.86A14.811,14.811,0,0,1,8,40V39H40.989a4.54,4.54,0,0,0-.8,3.131,11.084,11.084,0,0,0-2.253,2.176,4,4,0,0,0-2.469-1.28,3.986,3.986,0,0,0-6.953.018A2.941,2.941,0,0,0,28,43a3,3,0,0,0-1,5.83c0,.057,0,.113,0,.17,0,.1.022.2.03.307l-10.971-.844A6.582,6.582,0,0,0,11.1,50.189a6.345,6.345,0,0,0-.508.53L7.547,48.528a2.8,2.8,0,0,0-3.9,3.931,2.752,2.752,0,0,0-.727.458,2.782,2.782,0,0,0,.724,4.629,2.795,2.795,0,0,0,1.666,4.391,2.827,2.827,0,0,0,2.234-.466l1.036-.745A1,1,0,1,0,7.416,59.1l-1.035.744a.81.81,0,1,1-.807-1.4l2-.9L9.45,57.36a6.522,6.522,0,0,0,6.111,4.2c.166,0,.332-.007.5-.02l9-.692a1,1,0,1,0-.155-1.994L23,59V56a1,1,0,0,0-2,0v3.151l-5.094.392a4.556,4.556,0,1,1,0-9.086l.1.007V53a1,1,0,0,0,2,0V50.618l6,.462V54a1,1,0,0,0,2,0V51.234l2,.154V53a1,1,0,0,0,2,0V51.542l1.936.148A3.311,3.311,0,0,1,33,58.032V56a1,1,0,0,0-2,0v2.382l-2.108.162a1,1,0,1,0,.154,1.994l3.042-.234a5.348,5.348,0,0,0,4.8-4.244A10.994,10.994,0,0,0,57.645,51a1,1,0,0,0-2,0,9,9,0,1,1-16.913-4.283c.012-.02.021-.042.032-.063a8.971,8.971,0,0,1,2.064-2.5l.888,2.221a1,1,0,1,0,1.857-.742l-1.235-3.091a2.532,2.532,0,0,1,.374-2.52l.691-.865a2.518,2.518,0,0,1,3.381-.525l2.145,1.43a4.513,4.513,0,0,0,3.258.7l1.25-.208A2.531,2.531,0,0,1,55.8,44.658L52.967,48.09l-1.395-3.464a1,1,0,0,0-1.713-.245L47.566,47.29,46.623,42.8a1,1,0,1,0-1.957.41l1.383,6.59a1,1,0,0,0,1.763.414l2.549-3.234L51.739,50.4a1,1,0,0,0,.775.615.976.976,0,0,0,.153.011.993.993,0,0,0,.77-.363l3.908-4.726a4.542,4.542,0,0,0-.233-6.042,9.776,9.776,0,0,1,2.948.025l.419.07a.994.994,0,0,0,1.146-.79l.3-1.485A3.927,3.927,0,0,0,61.106,34.441ZM5.206,50.405a.794.794,0,0,1,.53-.386.806.806,0,0,1,.644.133l3.154,2.267c-.032.073-.056.148-.084.221l-1.873-.187-2-.9a.812.812,0,0,1-.368-1.144Zm-.315,5.4A.81.81,0,0,1,4.267,54.4a.791.791,0,0,1,.624-.2l4.13.414c-.008.13-.021.26-.021.392s.013.262.021.392Zm27.2-6.11-3.025-.232a1.786,1.786,0,0,1,.066-1.143,1.006,1.006,0,0,0-.194-.951A1.075,1.075,0,0,0,28,47a1,1,0,0,1,0-2,.986.986,0,0,1,.542.163,1,1,0,0,0,1.517-.615,1.987,1.987,0,0,1,3.819-.2.977.977,0,0,0,.993.67A.6.6,0,0,0,35,45a2,2,0,0,1,1.793,1.144A10.948,10.948,0,0,0,35.645,51c0,.173.018.342.025.513A5.3,5.3,0,0,0,32.089,49.7ZM37.017,37H34.569a4.816,4.816,0,0,0-.18-4.339l2.054-1.6.789.79-.707.707a1,1,0,1,0,1.414,1.414l.707-.707.79.789-1.953,2.511A2.317,2.317,0,0,1,37.017,37ZM25,24a2,2,0,0,1,2,1.938c0,.034-.016.135-.017.169a1,1,0,0,0,1.254,1.006,2.967,2.967,0,0,1,3.381,4.31,1,1,0,0,0,.25,1.255A2.981,2.981,0,0,1,33,35a2.9,2.9,0,0,1-.815,2h-2.36l1-1.428a1,1,0,1,0-1.64-1.144l-.125.178c-.078-.514-.173-1.024-.3-1.527L29.918,30.4a1,1,0,0,0-1.836-.794l-.3.684a16.862,16.862,0,0,0-.929-1.8,1,1,0,1,0-1.714,1.03A14.854,14.854,0,0,1,26,31.19l-2.022-.86c.01-.11.021-.219.021-.33a3.964,3.964,0,0,0-.9-2.5,1,1,0,0,0,.039-.788A1.958,1.958,0,0,1,23,26,2,2,0,0,1,25,24Zm-1.268,8.4,3.119,1.327a14.761,14.761,0,0,1,.347,2.186l-1.78-.819a1,1,0,1,0-.836,1.816l.2.092H22.964a4.881,4.881,0,0,0,.768-4.6ZM42.839,37H39.681l1.289-1.656a3.948,3.948,0,0,0,4.748-.662A6.96,6.96,0,0,0,47.7,30.664l.114.118a1,1,0,1,1,1.167,1.588A1,1,0,0,0,48.8,34a1.993,1.993,0,0,1,.381.434,1,1,0,0,0,1.338.335,1.971,1.971,0,0,1,1.666-.135,11.494,11.494,0,0,0-3.329,2.973l-.966-.644A4.487,4.487,0,0,0,42.839,37Zm17.123.318-.11.548a12.013,12.013,0,0,0-5.565.683,4.581,4.581,0,0,0-1.179.027l-1.25.208a2.5,2.5,0,0,1-1.28-.126A9.535,9.535,0,0,1,58.061,35a1.938,1.938,0,0,1,1.9,2.318Z"/></g></svg>
